<svg width="140" height="20" viewBox="0 0 140 20" fill="none" xmlns="http://www.w3.org/2000/svg">
<path d="M15.0002 1.66699H12.5002C11.3951 1.66699 10.3353 2.10598 9.55388 2.88738C8.77248 3.66878 8.3335 4.72859 8.3335 5.83366V8.33366H5.8335V11.667H8.3335V18.3337H11.6668V11.667H14.1668L15.0002 8.33366H11.6668V5.83366C11.6668 5.61265 11.7546 5.40068 11.9109 5.2444C12.0672 5.08812 12.2791 5.00033 12.5002 5.00033H15.0002V1.66699Z" stroke="white" stroke-linecap="round" stroke-linejoin="round"/>
<path d="M74.1665 1.66699H65.8332C63.532 1.66699 61.6665 3.53247 61.6665 5.83366V14.167C61.6665 16.4682 63.532 18.3337 65.8332 18.3337H74.1665C76.4677 18.3337 78.3332 16.4682 78.3332 14.167V5.83366C78.3332 3.53247 76.4677 1.66699 74.1665 1.66699Z" stroke="white" stroke-linecap="round" stroke-linejoin="round"/>
<path d="M73.3333 9.47525C73.4361 10.1688 73.3176 10.8771 72.9947 11.4994C72.6718 12.1218 72.1609 12.6264 71.5346 12.9416C70.9083 13.2569 70.1986 13.3666 69.5064 13.2552C68.8142 13.1438 68.1747 12.817 67.679 12.3212C67.1832 11.8255 66.8564 11.186 66.745 10.4938C66.6336 9.80154 66.7433 9.09183 67.0585 8.46556C67.3737 7.8393 67.8784 7.32837 68.5007 7.00545C69.1231 6.68254 69.8314 6.56407 70.5249 6.66692C71.2324 6.77182 71.8873 7.10147 72.393 7.60717C72.8987 8.11288 73.2283 8.76782 73.3333 9.47525Z" stroke="white" stroke-linecap="round" stroke-linejoin="round"/>
<path d="M74.5835 5.41699H74.5918" stroke="white" stroke-width="2" stroke-linecap="round" stroke-linejoin="round"/>
<path d="M138.602 5.19146C138.5 4.76169 138.291 4.36792 137.997 4.04992C137.702 3.73191 137.333 3.50094 136.927 3.38034C135.442 3 129.5 3 129.5 3C129.5 3 123.558 3 122.073 3.41656C121.667 3.53717 121.298 3.76814 121.003 4.08614C120.709 4.40414 120.5 4.79791 120.398 5.22768C120.126 6.80839 119.993 8.41192 120 10.0181C119.991 11.6364 120.124 13.2521 120.398 14.8448C120.511 15.2612 120.724 15.64 121.018 15.9445C121.311 16.2491 121.675 16.4692 122.073 16.5834C123.558 17 129.5 17 129.5 17C129.5 17 135.442 17 136.927 16.5834C137.333 16.4628 137.702 16.2319 137.997 15.9139C138.291 15.5959 138.5 15.2021 138.602 14.7723C138.872 13.2035 139.005 11.6122 139 10.0181C139.009 8.39983 138.876 6.78407 138.602 5.19146V5.19146Z" stroke="white" stroke-linecap="round" stroke-linejoin="round"/>
<path d="M128 13L133 10L128 7V13Z" stroke="white" stroke-linecap="round" stroke-linejoin="round"/>
</svg>
